<svg width="240" height="20" viewBox="0 0 240 20" fill="none" xmlns="http://www.w3.org/2000/svg">
<path d="M7.924 12.382H2.464L1.288 15H0.21L4.69 5.2H5.712L10.192 15H9.1L7.924 12.382ZM7.546 11.542L5.194 6.278L2.842 11.542H7.546ZM16.522 11.192C17.5206 11.4253 18.02 12.0273 18.02 12.998C18.02 13.642 17.782 14.1367 17.306 14.482C16.83 14.8273 16.1206 15 15.178 15H11.832V7.636H15.08C15.92 7.636 16.578 7.79933 17.054 8.126C17.53 8.45267 17.768 8.91933 17.768 9.526C17.768 9.92733 17.656 10.2727 17.432 10.562C17.2173 10.842 16.914 11.052 16.522 11.192ZM12.798 10.912H15.01C15.5793 10.912 16.0133 10.8047 16.312 10.59C16.62 10.3753 16.774 10.0627 16.774 9.652C16.774 9.24133 16.62 8.93333 16.312 8.728C16.0133 8.52267 15.5793 8.42 15.01 8.42H12.798V10.912ZM15.136 14.216C15.7706 14.216 16.2466 14.1133 16.564 13.908C16.8813 13.7027 17.04 13.3807 17.04 12.942C17.04 12.5033 16.8953 12.1813 16.606 11.976C16.3166 11.7613 15.8593 11.654 15.234 11.654H12.798V14.216H15.136ZM25.5295 8.518H22.7435V15H21.7495V8.518H18.9635V7.636H25.5295V8.518ZM29.6629 15.07C28.9536 15.07 28.3143 14.9113 27.7449 14.594C27.1756 14.2673 26.7276 13.8193 26.4009 13.25C26.0743 12.6807 25.9109 12.0367 25.9109 11.318C25.9109 10.5993 26.0743 9.95533 26.4009 9.386C26.7276 8.81667 27.1756 8.37333 27.7449 8.056C28.3143 7.73867 28.9536 7.58 29.6629 7.58C30.3723 7.58 31.0116 7.73867 31.5809 8.056C32.1503 8.37333 32.5936 8.81667 32.9109 9.386C33.2376 9.95533 33.4009 10.5993 33.4009 11.318C33.4009 12.0367 33.2376 12.6807 32.9109 13.25C32.5936 13.8193 32.1503 14.2673 31.5809 14.594C31.0116 14.9113 30.3723 15.07 29.6629 15.07ZM29.6629 14.188C30.1856 14.188 30.6523 14.0713 31.0629 13.838C31.4829 13.5953 31.8096 13.2547 32.0429 12.816C32.2763 12.3773 32.3929 11.878 32.3929 11.318C32.3929 10.758 32.2763 10.2587 32.0429 9.82C31.8096 9.38133 31.4829 9.04533 31.0629 8.812C30.6523 8.56933 30.1856 8.448 29.6629 8.448C29.1403 8.448 28.6689 8.56933 28.2489 8.812C27.8383 9.04533 27.5116 9.38133 27.2689 9.82C27.0356 10.2587 26.9189 10.758 26.9189 11.318C26.9189 11.878 27.0356 12.3773 27.2689 12.816C27.5116 13.2547 27.8383 13.5953 28.2489 13.838C28.6689 14.0713 29.1403 14.188 29.6629 14.188ZM39.3193 7.58C40.01 7.58 40.6353 7.73867 41.1953 8.056C41.7553 8.364 42.194 8.80267 42.5113 9.372C42.8287 9.94133 42.9873 10.59 42.9873 11.318C42.9873 12.0553 42.8287 12.7087 42.5113 13.278C42.194 13.8473 41.7553 14.2907 41.1953 14.608C40.6447 14.916 40.0193 15.07 39.3193 15.07C38.722 15.07 38.1807 14.9487 37.6953 14.706C37.2193 14.454 36.8273 14.09 36.5193 13.614V17.716H35.5253V7.636H36.4773V9.092C36.776 8.60667 37.168 8.23333 37.6533 7.972C38.148 7.71067 38.7033 7.58 39.3193 7.58ZM39.2493 14.188C39.7627 14.188 40.2293 14.0713 40.6493 13.838C41.0693 13.5953 41.396 13.2547 41.6293 12.816C41.872 12.3773 41.9933 11.878 41.9933 11.318C41.9933 10.758 41.872 10.2633 41.6293 9.834C41.396 9.39533 41.0693 9.05467 40.6493 8.812C40.2293 8.56933 39.7627 8.448 39.2493 8.448C38.7267 8.448 38.2553 8.56933 37.8353 8.812C37.4247 9.05467 37.098 9.39533 36.8553 9.834C36.622 10.2633 36.5053 10.758 36.5053 11.318C36.5053 11.878 36.622 12.3773 36.8553 12.816C37.098 13.2547 37.4247 13.5953 37.8353 13.838C38.2553 14.0713 38.7267 14.188 39.2493 14.188ZM45.193 9.106C44.9877 9.106 44.8103 9.03133 44.661 8.882C44.521 8.73267 44.451 8.55067 44.451 8.336C44.451 8.12133 44.521 7.944 44.661 7.804C44.8103 7.65467 44.9877 7.58 45.193 7.58C45.3983 7.58 45.5757 7.65467 45.725 7.804C45.8743 7.944 45.949 8.12133 45.949 8.336C45.949 8.55067 45.8743 8.73267 45.725 8.882C45.5757 9.03133 45.3983 9.106 45.193 9.106ZM45.193 15.07C44.9877 15.07 44.8103 14.9953 44.661 14.846C44.521 14.6967 44.451 14.5147 44.451 14.3C44.451 14.0853 44.521 13.908 44.661 13.768C44.8103 13.6187 44.9877 13.544 45.193 13.544C45.3983 13.544 45.5757 13.6187 45.725 13.768C45.8743 13.908 45.949 14.0853 45.949 14.3C45.949 14.5147 45.8743 14.6967 45.725 14.846C45.5757 14.9953 45.3983 15.07 45.193 15.07ZM59.6778 5.2V15H58.6558V6.096H53.9238L53.8118 9.372C53.7652 10.7253 53.6532 11.8173 53.4758 12.648C53.3078 13.4693 53.0465 14.0853 52.6918 14.496C52.3372 14.8973 51.8658 15.098 51.2778 15.098C51.0258 15.098 50.7645 15.0653 50.4938 15L50.5778 14.076C50.7365 14.1133 50.8905 14.132 51.0398 14.132C51.4505 14.132 51.7818 13.9687 52.0338 13.642C52.2952 13.3153 52.4912 12.8113 52.6218 12.13C52.7525 11.4393 52.8412 10.5293 52.8878 9.4L53.0278 5.2H59.6778ZM62.746 7.636H63.74V13.488L68.654 7.636H69.536V15H68.542V9.148L63.642 15H62.746V7.636ZM75.8183 11.164C76.341 11.2853 76.7423 11.4953 77.0223 11.794C77.3116 12.0927 77.4563 12.4567 77.4563 12.886C77.4563 13.3153 77.307 13.698 77.0083 14.034C76.719 14.37 76.3223 14.6313 75.8183 14.818C75.3143 14.9953 74.759 15.084 74.1523 15.084C73.6203 15.084 73.0976 15.0093 72.5843 14.86C72.071 14.7013 71.623 14.4727 71.2403 14.174L71.5763 13.432C71.9123 13.684 72.3043 13.88 72.7523 14.02C73.2003 14.16 73.653 14.23 74.1103 14.23C74.7916 14.23 75.347 14.104 75.7763 13.852C76.215 13.5907 76.4343 13.2407 76.4343 12.802C76.4343 12.41 76.257 12.1067 75.9023 11.892C75.5476 11.668 75.0623 11.556 74.4463 11.556H73.1863V10.828H74.3903C74.941 10.828 75.3843 10.7253 75.7203 10.52C76.0563 10.3053 76.2243 10.0207 76.2243 9.666C76.2243 9.274 76.033 8.966 75.6503 8.742C75.277 8.518 74.787 8.406 74.1803 8.406C73.387 8.406 72.603 8.60667 71.8283 9.008L71.5483 8.238C72.4256 7.78067 73.3356 7.552 74.2783 7.552C74.8383 7.552 75.3423 7.636 75.7903 7.804C76.2476 7.96267 76.6023 8.19133 76.8543 8.49C77.1156 8.78867 77.2463 9.134 77.2463 9.526C77.2463 9.89933 77.1156 10.2307 76.8543 10.52C76.6023 10.8093 76.257 11.024 75.8183 11.164ZM82.2468 7.58C83.2082 7.58 83.9455 7.82267 84.4588 8.308C84.9722 8.784 85.2288 9.49333 85.2288 10.436V15H84.2768V13.852C84.0528 14.2347 83.7215 14.5333 83.2828 14.748C82.8535 14.9627 82.3402 15.07 81.7428 15.07C80.9215 15.07 80.2682 14.874 79.7828 14.482C79.2975 14.09 79.0548 13.572 79.0548 12.928C79.0548 12.3027 79.2788 11.7987 79.7268 11.416C80.1842 11.0333 80.9075 10.842 81.8968 10.842H84.2348V10.394C84.2348 9.75933 84.0575 9.27867 83.7028 8.952C83.3482 8.616 82.8302 8.448 82.1488 8.448C81.6822 8.448 81.2342 8.52733 80.8048 8.686C80.3755 8.83533 80.0068 9.04533 79.6988 9.316L79.2508 8.574C79.6242 8.25667 80.0722 8.014 80.5948 7.846C81.1175 7.66867 81.6682 7.58 82.2468 7.58ZM81.8968 14.286C82.4568 14.286 82.9375 14.16 83.3388 13.908C83.7402 13.6467 84.0388 13.2733 84.2348 12.788V11.584H81.9248C80.6648 11.584 80.0348 12.0227 80.0348 12.9C80.0348 13.3293 80.1982 13.67 80.5248 13.922C80.8515 14.1647 81.3088 14.286 81.8968 14.286ZM102.263 10.086C102.263 11.3833 101.801 12.4053 100.877 13.152C99.9623 13.8893 98.679 14.2813 97.027 14.328V15.336H96.061V14.328C94.409 14.272 93.121 13.8753 92.197 13.138C91.2823 12.4007 90.825 11.3833 90.825 10.086C90.825 8.78867 91.2823 7.77133 92.197 7.034C93.121 6.29667 94.409 5.9 96.061 5.844V4.864H97.027V5.844C98.6697 5.9 99.953 6.30133 100.877 7.048C101.801 7.78533 102.263 8.798 102.263 10.086ZM97.027 13.502C98.3803 13.446 99.4257 13.124 100.163 12.536C100.9 11.948 101.269 11.1313 101.269 10.086C101.269 9.04067 100.896 8.224 100.149 7.636C99.4117 7.048 98.371 6.73067 97.027 6.684V13.502ZM91.819 10.086C91.819 11.1313 92.1877 11.948 92.925 12.536C93.6717 13.1147 94.717 13.4367 96.061 13.502V6.684C94.6983 6.74 93.6483 7.062 92.911 7.65C92.183 8.22867 91.819 9.04067 91.819 10.086ZM106.911 7.58C107.872 7.58 108.61 7.82267 109.123 8.308C109.636 8.784 109.893 9.49333 109.893 10.436V15H108.941V13.852C108.717 14.2347 108.386 14.5333 107.947 14.748C107.518 14.9627 107.004 15.07 106.407 15.07C105.586 15.07 104.932 14.874 104.447 14.482C103.962 14.09 103.719 13.572 103.719 12.928C103.719 12.3027 103.943 11.7987 104.391 11.416C104.848 11.0333 105.572 10.842 106.561 10.842H108.899V10.394C108.899 9.75933 108.722 9.27867 108.367 8.952C108.012 8.616 107.494 8.448 106.813 8.448C106.346 8.448 105.898 8.52733 105.469 8.686C105.04 8.83533 104.671 9.04533 104.363 9.316L103.915 8.574C104.288 8.25667 104.736 8.014 105.259 7.846C105.782 7.66867 106.332 7.58 106.911 7.58ZM106.561 14.286C107.121 14.286 107.602 14.16 108.003 13.908C108.404 13.6467 108.703 13.2733 108.899 12.788V11.584H106.589C105.329 11.584 104.699 12.0227 104.699 12.9C104.699 13.3293 104.862 13.67 105.189 13.922C105.516 14.1647 105.973 14.286 106.561 14.286ZM112.539 7.636H113.533V13.488L118.447 7.636H119.329V15H118.335V9.148L113.435 15H112.539V7.636ZM115.885 6.572C115.25 6.572 114.746 6.41333 114.373 6.096C114 5.77867 113.808 5.33067 113.799 4.752H114.513C114.522 5.116 114.653 5.41 114.905 5.634C115.157 5.84867 115.484 5.956 115.885 5.956C116.286 5.956 116.613 5.84867 116.865 5.634C117.126 5.41 117.262 5.116 117.271 4.752H117.985C117.976 5.33067 117.78 5.77867 117.397 6.096C117.024 6.41333 116.52 6.572 115.885 6.572ZM122.178 7.636H123.172V10.898H127.806V7.636H128.8V15H127.806V11.752H123.172V15H122.178V7.636ZM136.805 8.518H134.019V15H133.025V8.518H130.239V7.636H136.805V8.518ZM144.527 7.636L140.845 15.882C140.547 16.5727 140.201 17.0627 139.809 17.352C139.417 17.6413 138.946 17.786 138.395 17.786C138.041 17.786 137.709 17.73 137.401 17.618C137.093 17.506 136.827 17.338 136.603 17.114L137.065 16.372C137.439 16.7453 137.887 16.932 138.409 16.932C138.745 16.932 139.03 16.8387 139.263 16.652C139.506 16.4653 139.73 16.148 139.935 15.7L140.257 14.986L136.967 7.636H138.003L140.775 13.894L143.547 7.636H144.527ZM150.258 15L147.92 11.92L145.568 15H144.448L147.36 11.22L144.588 7.636H145.708L147.92 10.52L150.132 7.636H151.224L148.452 11.22L151.392 15H150.258Z" fill="#494949"/>
<path d="M161.764 11.976C161.549 11.976 161.372 11.906 161.232 11.766C161.092 11.6167 161.022 11.43 161.022 11.206C161.022 10.982 161.092 10.8 161.232 10.66C161.372 10.5107 161.549 10.436 161.764 10.436C161.979 10.436 162.156 10.5107 162.296 10.66C162.445 10.8 162.52 10.982 162.52 11.206C162.52 11.43 162.445 11.6167 162.296 11.766C162.156 11.906 161.979 11.976 161.764 11.976Z" fill="#494949"/>
<path d="M179.42 14.104V15H172.546V14.286L176.62 10.296C177.133 9.792 177.479 9.358 177.656 8.994C177.843 8.62067 177.936 8.24733 177.936 7.874C177.936 7.29533 177.735 6.84733 177.334 6.53C176.942 6.20333 176.377 6.04 175.64 6.04C174.492 6.04 173.601 6.404 172.966 7.132L172.252 6.516C172.635 6.068 173.12 5.72267 173.708 5.48C174.305 5.23733 174.977 5.116 175.724 5.116C176.723 5.116 177.511 5.354 178.09 5.83C178.678 6.29667 178.972 6.94067 178.972 7.762C178.972 8.266 178.86 8.75133 178.636 9.218C178.412 9.68467 177.987 10.2213 177.362 10.828L174.03 14.104H179.42ZM183.401 5.2V15H182.393V6.096H180.083V5.2H183.401ZM186.5 15.07C186.294 15.07 186.117 14.9953 185.968 14.846C185.828 14.6967 185.758 14.5147 185.758 14.3C185.758 14.0853 185.828 13.908 185.968 13.768C186.117 13.6187 186.294 13.544 186.5 13.544C186.705 13.544 186.882 13.6187 187.032 13.768C187.181 13.908 187.256 14.0853 187.256 14.3C187.256 14.5147 187.181 14.6967 187.032 14.846C186.882 14.9953 186.705 15.07 186.5 15.07ZM192.466 15.084C191.71 15.084 191.033 14.8833 190.436 14.482C189.848 14.0807 189.386 13.5067 189.05 12.76C188.723 12.004 188.56 11.1173 188.56 10.1C188.56 9.08267 188.723 8.20067 189.05 7.454C189.386 6.698 189.848 6.11933 190.436 5.718C191.033 5.31667 191.71 5.116 192.466 5.116C193.222 5.116 193.894 5.31667 194.482 5.718C195.079 6.11933 195.546 6.698 195.882 7.454C196.218 8.20067 196.386 9.08267 196.386 10.1C196.386 11.1173 196.218 12.004 195.882 12.76C195.546 13.5067 195.079 14.0807 194.482 14.482C193.894 14.8833 193.222 15.084 192.466 15.084ZM192.466 14.16C193.035 14.16 193.535 14.0013 193.964 13.684C194.403 13.3667 194.743 12.9047 194.986 12.298C195.229 11.6913 195.35 10.9587 195.35 10.1C195.35 9.24133 195.229 8.50867 194.986 7.902C194.743 7.29533 194.403 6.83333 193.964 6.516C193.535 6.19867 193.035 6.04 192.466 6.04C191.897 6.04 191.393 6.19867 190.954 6.516C190.525 6.83333 190.189 7.29533 189.946 7.902C189.703 8.50867 189.582 9.24133 189.582 10.1C189.582 10.9587 189.703 11.6913 189.946 12.298C190.189 12.9047 190.525 13.3667 190.954 13.684C191.393 14.0013 191.897 14.16 192.466 14.16ZM203.444 9.862C204.06 10.0673 204.531 10.3753 204.858 10.786C205.194 11.1967 205.362 11.6913 205.362 12.27C205.362 12.8393 205.208 13.3387 204.9 13.768C204.592 14.188 204.148 14.5147 203.57 14.748C203 14.972 202.328 15.084 201.554 15.084C200.378 15.084 199.454 14.832 198.782 14.328C198.11 13.824 197.774 13.138 197.774 12.27C197.774 11.682 197.932 11.1873 198.25 10.786C198.576 10.3753 199.048 10.0673 199.664 9.862C199.16 9.666 198.777 9.386 198.516 9.022C198.254 8.64867 198.124 8.21 198.124 7.706C198.124 6.91267 198.432 6.28267 199.048 5.816C199.673 5.34933 200.508 5.116 201.554 5.116C202.244 5.116 202.846 5.22333 203.36 5.438C203.882 5.64333 204.288 5.942 204.578 6.334C204.867 6.726 205.012 7.18333 205.012 7.706C205.012 8.21 204.876 8.64867 204.606 9.022C204.335 9.386 203.948 9.666 203.444 9.862ZM199.132 7.734C199.132 8.27533 199.346 8.70467 199.776 9.022C200.205 9.33933 200.798 9.498 201.554 9.498C202.31 9.498 202.902 9.33933 203.332 9.022C203.77 8.70467 203.99 8.28 203.99 7.748C203.99 7.19733 203.766 6.76333 203.318 6.446C202.879 6.12867 202.291 5.97 201.554 5.97C200.807 5.97 200.214 6.12867 199.776 6.446C199.346 6.76333 199.132 7.19267 199.132 7.734ZM201.554 14.23C202.422 14.23 203.098 14.0527 203.584 13.698C204.078 13.3433 204.326 12.8627 204.326 12.256C204.326 11.6493 204.078 11.1733 203.584 10.828C203.098 10.4733 202.422 10.296 201.554 10.296C200.695 10.296 200.018 10.4733 199.524 10.828C199.038 11.1733 198.796 11.6493 198.796 12.256C198.796 12.872 199.038 13.3573 199.524 13.712C200.009 14.0573 200.686 14.23 201.554 14.23ZM207.65 15.07C207.445 15.07 207.267 14.9953 207.118 14.846C206.978 14.6967 206.908 14.5147 206.908 14.3C206.908 14.0853 206.978 13.908 207.118 13.768C207.267 13.6187 207.445 13.544 207.65 13.544C207.855 13.544 208.033 13.6187 208.182 13.768C208.331 13.908 208.406 14.0853 208.406 14.3C208.406 14.5147 208.331 14.6967 208.182 14.846C208.033 14.9953 207.855 15.07 207.65 15.07ZM216.69 14.104V15H209.816V14.286L213.89 10.296C214.403 9.792 214.748 9.358 214.926 8.994C215.112 8.62067 215.206 8.24733 215.206 7.874C215.206 7.29533 215.005 6.84733 214.604 6.53C214.212 6.20333 213.647 6.04 212.91 6.04C211.762 6.04 210.87 6.404 210.236 7.132L209.522 6.516C209.904 6.068 210.39 5.72267 210.978 5.48C211.575 5.23733 212.247 5.116 212.994 5.116C213.992 5.116 214.781 5.354 215.36 5.83C215.948 6.29667 216.242 6.94067 216.242 7.762C216.242 8.266 216.13 8.75133 215.906 9.218C215.682 9.68467 215.257 10.2213 214.632 10.828L211.3 14.104H216.69ZM221.806 15.084C221.05 15.084 220.373 14.8833 219.776 14.482C219.188 14.0807 218.726 13.5067 218.39 12.76C218.063 12.004 217.9 11.1173 217.9 10.1C217.9 9.08267 218.063 8.20067 218.39 7.454C218.726 6.698 219.188 6.11933 219.776 5.718C220.373 5.31667 221.05 5.116 221.806 5.116C222.562 5.116 223.234 5.31667 223.822 5.718C224.419 6.11933 224.886 6.698 225.222 7.454C225.558 8.20067 225.726 9.08267 225.726 10.1C225.726 11.1173 225.558 12.004 225.222 12.76C224.886 13.5067 224.419 14.0807 223.822 14.482C223.234 14.8833 222.562 15.084 221.806 15.084ZM221.806 14.16C222.375 14.16 222.875 14.0013 223.304 13.684C223.743 13.3667 224.083 12.9047 224.326 12.298C224.569 11.6913 224.69 10.9587 224.69 10.1C224.69 9.24133 224.569 8.50867 224.326 7.902C224.083 7.29533 223.743 6.83333 223.304 6.516C222.875 6.19867 222.375 6.04 221.806 6.04C221.237 6.04 220.733 6.19867 220.294 6.516C219.865 6.83333 219.529 7.29533 219.286 7.902C219.043 8.50867 218.922 9.24133 218.922 10.1C218.922 10.9587 219.043 11.6913 219.286 12.298C219.529 12.9047 219.865 13.3667 220.294 13.684C220.733 14.0013 221.237 14.16 221.806 14.16ZM233.834 14.104V15H226.96V14.286L231.034 10.296C231.547 9.792 231.893 9.358 232.07 8.994C232.257 8.62067 232.35 8.24733 232.35 7.874C232.35 7.29533 232.149 6.84733 231.748 6.53C231.356 6.20333 230.791 6.04 230.054 6.04C228.906 6.04 228.015 6.404 227.38 7.132L226.666 6.516C227.049 6.068 227.534 5.72267 228.122 5.48C228.719 5.23733 229.391 5.116 230.138 5.116C231.137 5.116 231.925 5.354 232.504 5.83C233.092 6.29667 233.386 6.94067 233.386 7.762C233.386 8.266 233.274 8.75133 233.05 9.218C232.826 9.68467 232.401 10.2213 231.776 10.828L228.444 14.104H233.834ZM237.815 5.2V15H236.807V6.096H234.497V5.2H237.815Z" fill="#494949"/>
</svg>
